<svg xmlns="http://www.w3.org/2000/svg" fill="none" viewBox="0 0 400 400">
  <path fill="#1A4CE5" d="M228.128 93.788c-6.89-10.094-20.372-8.698-31.042-8.624-24.864.166-128.028.038-135.272.4-11.158.574-22.362 5.094-24.174 16.2-.978 6-.112 12.414.112 18.46.9 24.476 1.572 54.754 4.586 76.564.818 5.932 1.892 11.878 5.582 16.78 5.824 7.74 17.366 10.46 27.05 10.622.114.19 88.726 2.276 120.758-.124 9.318-.7 20.666-1.4 26.948-9.376 3.148-4 3.416-9.766 4.046-14.622 2.266-17.424 3.778-46.91 5.758-78.53.566-9.03 1.006-19.904-4.352-27.75m2.45 22c-.066 3.616-2.76 46.374-2.936 48.968-.6 8.772-2.53 36.368-5.024 44.986-2.466 8.506-13.546 10.6-21.074 11.4-6.378.69-12.8 1.086-19.214 1.294-32.92 1.064-104.426.84-107.29.764-11.6-.534-24.614-3.934-28.986-15.968A65.2 65.2 0 0 1 43.4 190.4c-2.182-26.246-1.846-34.168-3.518-74.568-.236-5.784-1.416-12.584 1.236-17.99 5.816-11.82 23.382-10.162 34.144-10.28 12.658-.138 120.084-.218 126.734-.272 5.912-.048 12.294-.348 17.8 2.218 9.932 4.622 10.954 16.634 10.782 26.272zM135.042 232.1c1.55 3.5 7.354 1.73 5.328-2.944a2.94 2.94 0 0 0-1.881-1.675 2.94 2.94 0 0 0-2.489.391c-1.234.846-2.314 3.118-.92 4.326a.4.4 0 0 0 .205.111.397.397 0 0 0 .479-.395c.086-.924-.096-1.908.674-2.6a1.84 1.84 0 0 1 2.274-.269c.234.145.433.341.582.573a2.144 2.144 0 0 1-.376 2.898 2.44 2.44 0 0 1-3.234-.8c-.252-.416-.834-.048-.642.384m-7.902 21.544c3.119.531 6.284.746 9.446.642 3.454.102 6.924.22 10.376.2a.887.887 0 0 0 0-1.774c-3.452-.14-6.922-.15-10.376-.166a46.6 46.6 0 0 0-9.446.314.412.412 0 0 0 0 .784"/>
  <path fill="#1A4CE5" d="M243.44 85.454a21.2 21.2 0 0 0-11.622-11.046c-6.586-2.582-13.922-2.174-20.86-2.11-29.552.272-150.872.182-159.222.528A37.76 37.76 0 0 0 33.2 77.968c-12.6 7.958-9.724 21.232-9.22 36.118.968 28.62 1.706 64.144 4.914 89.58.844 6.698 1.774 13.482 5.372 19.352 6.424 10.474 19.432 14.428 31.67 14.378.472 0 27.678.652 58.878.884.048 1.646.374 3.464.558 5.2-.68-.082-19 .376-24.384 1.142a.77.77 0 0 0-.53.393.78.78 0 0 0-.034.659c-2.76 2.332-5.2 5.224-7.716 7.774-3.096 3.122-6.362 6.152-9.254 9.462a.662.662 0 0 0 .936.936c3.24-2.974 6.184-6.314 9.232-9.484 2.536-2.642 5.442-5.2 7.728-8.088a229 229 0 0 1 24.15-.874c.016 1.314-.054 2.87 1.25 3.536.2.106.55.032.588-.242a27 27 0 0 0-.214-5.2 16.4 16.4 0 0 0-.97-5.2c7.272.052 14.742.078 22.124.066a17.73 17.73 0 0 0-.4 9.244.47.47 0 0 0 .449.331.47.47 0 0 0 .449-.331c.259-.87.414-1.768.462-2.674 4.092.546 7.482.164 18.506.852 1.674.106 4.062.13 5.472.122a40 40 0 0 0 7.266 7.65 102 102 0 0 0 8.49 7.464c.716.54 1.6-.642.956-1.24-2.854-2.61-5.854-5.052-8.702-7.678a75 75 0 0 0-6.936-6.536.55.55 0 0 0-.238-.644 13.3 13.3 0 0 0-5.288-.832q-3.576-.226-7.158-.348a96 96 0 0 0-12.268-.428c.112-1.772.42-3.41.434-4.954 21.066-.046 41.264-.412 53.938-1.418 10.756-.856 23.918-1.482 31.284-10.6 3.812-4.714 4.17-11.236 4.918-17.032 3.162-24.468 4.486-62.272 6.486-90.276.802-10.988 1.746-23.282-2.958-33.578m1.298 25.2c-.118 3.38-3.088 52.256-3.4 57.132-.676 10.266-2.892 42.298-5.688 52.336-2.7 9.698-14.638 12.536-23.298 13.588-7.42.904-14.93 1.38-22.4 1.632-37.982 1.288-122.43.818-123.938.762-13.776-.6-28.43-5.06-33.156-19.452-2.09-6.362-2.342-13.316-2.87-19.956-2.088-26.346-1.948-34.766-3.8-86.144-.252-6.81-1.46-14.374.48-21.018 4.56-15.584 25.094-14.564 37.764-14.73 14.984-.2 143.092-.352 150.742-.4 6.892-.036 14.316.14 20.154 4.304 9.672 6.892 9.784 21.27 9.41 31.94zM11.702 317.672c1.21-1.714 29.504-33.6 30.91-35.186a8.53 8.53 0 0 1 7.296-3c19.272-.112 38.55-.234 57.822.076 35.96.588 115.064-1.428 117.716-1.4 2.6.026 5.954-.572 7.938 1.336 1.892 1.822 21.464 28.44 28.306 35.57 1.064 1.106 2.742-.576 1.684-1.684-6.698-6.986-23.42-29.498-26.152-32.902a13.8 13.8 0 0 0-3.8-4.036c-3.414-1.702-43.018.374-59.948.758-20.04.458-14.886.102-121.442.074-4.714 0-8.05.2-11.156 4.058-3.572 4.442-28.96 33.888-30.098 35.79-.354.604.534 1.098.924.546m248.23 7.57c1.748-2.972 5.366-7.836 3.63-8.4-2.684-.856-251.374 1.436-251.374 1.436s-4.784.124-.2 4.39 4.8 5.356 13.076 5.036 211.318-.968 216.978-.878 16.782.298 17.89-1.584"/>
  <path fill="#1A4CE5" d="M38.116 297.55c-1.76 2.18-9.574 10.212-9.89 12.2a.865.865 0 0 0 .38.936c1.068.684 33.492 0 40.718-.026 15.264-.064 123.49.6 126.228.636 2.094.026 3.576-.418 2.55-2.764-3.498-8-6.972-16-10.526-23.976-.904-2.022-1.626-2.294-3.8-2.284 0 0-129.834 0-133.94-.048a.742.742 0 0 0 0 1.482c25.666.25 127.958-.07 135.16.358.582.036-.2-1.318 11.232 24.458.16.358.118 1-1.776 1.046-1.314.028-126.888-.502-155.65-.288-1.528 0-8.012.272-7.964-.112.16-1.288 10.154-11.908 18.682-24.976.294-.45-.4-.818-.704-.412-.016-.006-6.794 8.93-10.7 13.77m163.47 7.614a31.4 31.4 0 0 0 2.514 5.548c.6.822 1 .812 2 .844 5.576.174 21.088-.534 36.6-.23 1.026.022 5.256.668 5.2-1-.082-2.448-7.518-11.096-17.77-27.094-1.17-1.828-1.674-1.94-3.988-1.838-3.784.16-26.072.962-33.428 1.2-.978.032-.984 1.556 0 1.524 37.962-1.2 35.04-1.292 35.272-1.144.748.476 1.498 2.316 1.978 3.052 1.07 1.626 14.092 21.014 15.274 22.71.706 1.01.016.952-1.4.924-1.6-.036-36.346.188-37.476.178-1.4-.018-2.084-2.748-2.656-3.968-7.332-15.672-8.5-18.086-10.504-21.356-.316-.514-1.134-.358-.91.166 3.508 8.212 6.108 13.278 9.294 20.484"/>
  <path fill="#FF3A51" d="M113.776 129.8c-.656-8.542 3-17.32 6.6-21a20.94 20.94 0 0 1 27.618-.85 28.64 28.64 0 0 1 9.548 17.78c.39 1.636 1.8 5.77-3.8 6.148-.4.028-1.546-.982-1.706-1.292-1.6-3.102-1.866-6.678-3.218-9.886a17.82 17.82 0 0 0-8.58-9.43 12.02 12.02 0 0 0-12.334 1.15 18.34 18.34 0 0 0-5.912 11.104c-1.828 11.664 2.732 19.928 3.892 20.426.657.227 1.356.31 2.048.246 5.5-.134 27.37-1 32.576-.894.552.012 1.782.2 2.128 1.16 1.246 3.448.54 11.82.472 12.676-.266 3.3-2.288 1.162-5.668 3.288-11.3-1.4-15.254-1.962-17.4-1.342a3.36 3.36 0 0 0-2.122 1.588 3.455 3.455 0 0 0 2.032 4.356c1.64.728 3.614.958 4.934 1.668-.112 2.2.15 3.036.042 5.244a3.8 3.8 0 0 0 .16 1.652 2.57 2.57 0 0 0 2.038 1.4 7.6 7.6 0 0 0 2.566-.22 23.6 23.6 0 0 1 1.358-8.084c1.662.278 3.522.952 5.184 1.23.2.044-1.458 5.534-1.148 7.752.112.786 1.432.572 1.56.732 1.942 2.464 2.684 2.968 4.026 3.294 1.508.368 1.738 1.052 2.02 2.86 2 12.744-10.892 24.254-24.162 24.484-7.436.134-20.31 0-29.628-13.44a17.84 17.84 0 0 1-3.4-10.028 7.3 7.3 0 0 1 1.17-2.4c3.214-3.072 5.732-5.736 5.298-11.354-.358-4.662-2.266-8.88-6.714-9.714-.384-.068-1.262-1.39-1.32-1.78a47.4 47.4 0 0 1-.284-12.46c.175-.322.447-.582.776-.744 2.506-.534 8.842-.166 11.332-.636a2.43 2.43 0 0 0 .668-1.886 47 47 0 0 1-2.65-12.798"/>
  <path fill="#1A4CE5" d="M188.66 141.222c-.228 3.756-2.518 49.102-1.588 52.784a.506.506 0 0 0 .968 0c1.072-3.494 1.104-48.358 1.048-52.784a.213.213 0 0 0-.365-.151.2.2 0 0 0-.063.151m99.776 17.144a23.13 23.13 0 0 0-16.846 1.362c-6.8 3.322-11.238 10.266-13.896 17.64a7.77 7.77 0 0 0-3.938-3.324c-2.976-1.106-8.922 0-9.086 3.958a.595.595 0 0 0 .372.554.6.6 0 0 0 .654-.132c2.09-1.674 4.356-3.384 7.2-2.326a5.27 5.27 0 0 1 3.384 4.084 5.65 5.65 0 0 1-3.22 5.6 6.9 6.9 0 0 1-8-2.764c-.098-.118-.34-.102-.322.08.422 4.49 6.726 6.4 10.426 3.942-1.884 10.97.474 23.9 10.418 28.962a20.75 20.75 0 0 0 16.179 1.251 20.74 20.74 0 0 0 12.127-10.783c.636-1.3-1.294-2.448-1.956-1.144a18.416 18.416 0 0 1-22.786 9.558c-9.938-3.2-13.038-14.53-12.262-23.922a49.9 49.9 0 0 1 4.966-17.304 24.6 24.6 0 0 1 8.832-10.81 21.64 21.64 0 0 1 15.78-2.62c8.708 1.876 13.814 12.092 13.018 20.282-.044.428.576.448.706.092 3.102-8.504-3.46-19.382-11.75-22.236"/>
  <path fill="#1A4CE5" d="M286.2 200.084c-3.022 2.332-5.966 4.962-9.97 5.2-7.072.43-13.95-8.122-9.126-20.93 2.378-6.308 7.57-15.08 15.176-15.32a8.76 8.76 0 0 1 8 4.512c.984 1.94.46 3.988 1.166 5.916.2.556 1.112.846 1.412.188 1.914-4.212-1.038-9.4-4.758-11.478-5.6-3.126-11.974-.6-15.984 3.856-7.344 8.172-14.14 25.68-2.416 33.34 5.854 3.828 13.092.434 17.048-4.56.304-.366-.096-1.074-.548-.724m-144.572-40.356a24.6 24.6 0 0 1 8.548.428c13.174 1.624 26.294 5.014 34.736 4.438.31-.022.434-.51.076-.578-5.85-1.116-11.868-1.298-17.748-2.31-5.63-.966-11.238-2.078-16.898-2.832a30.5 30.5 0 0 0-8.814-.708 5.6 5.6 0 0 0-5.2-2.334c-6.726.042-8.168 7.334-5.64 11.642a14.7 14.7 0 0 0 3 3.626 1.56 1.56 0 0 1 .448 1.732c-.758 2.03-2.458 6.526-3.848 9.648a.86.86 0 0 0 .764 1.21c3.928.106 8.024.26 11.942.176a.9.9 0 0 0 .392-.106.865.865 0 0 0 .384-1.06c-1.338-3.454-2.09-6.678-3.46-10.014a1.53 1.53 0 0 1 .44-1.778 5.5 5.5 0 0 0 1.882-4.39c3.2 1.22-.348 5.884.87 8.132.7 1.298 4.132 1.832 5.426 1.518 2.318-.564 1.684-6.484 2.438-7.742.466-.786 3.748.236 3.866.444a8.2 8.2 0 0 1-.38 1.856c-.326 1.8-1.8 5.034.46 5.848q1.292.209 2.6.218c.668.209 1.356.351 2.052.424 2.242-.172 1.712-3.622 2.08-5.374.518-2.502 1.812-1.844 3.844-1.464a186 186 0 0 0 18.448 3.154c.844.07 1.054-1.368.2-1.496-5-.756-9.934-1.488-14.872-2.578a32 32 0 0 0-7.228-1.47c-1.486.064-1.556 1.144-1.8 2.444a16 16 0 0 1-.712 4.382c-.62.926-1.518.4-2.516.312-2.39-.214-1.514-1.386-1.46-1.712.218-1.31 1.524-4.682.326-5.784a13.2 13.2 0 0 0-5-1.128c-.846.128-.98.546-1.224 1.278a31 31 0 0 0-.67 3.308c-.144.68.162 3.972-2.49 3.2-1.492-.588-1.68-.8-1.856-2.42s.738-3.364.546-4.956c-.144-1.22-.508-1.332-1.732-1.62-1.314-.31-2.856-.172-3.956-1.096-2.204-1.848-.264-3.954 1.736-4.468m97.904 1.69v.358c0 .032.054.032.054 0 0-.118 0-.24.016-.358-.002-.038-.07-.042-.07 0M83.358 264.508s105.72-1.364 106.746-1.14-.252 7.062-3.4 7.042-97.59.742-99.118.138-5.858-6.018-4.228-6.04m220.328-94.456c3.574.042 28.724-2.822 32.252-2.464 3.614.368 49.85 9.708 53.444 9.552.272 0 .444-.432.154-.566-3.344-1.522-48.872-10.4-53.142-10.782-3.684-.322-26.356 1.416-32.744 3.934a.17.17 0 0 0-.094.067.16.16 0 0 0-.027.111.17.17 0 0 0 .157.148"/>
  <path fill="#1A4CE5" d="M288.024 187.052c27.4 1.238 39.8-12.1 59.12-8.2.854.17 2.058.16 2.24-.69.2-.904-1.042-1.268-1.946-1.464a35.64 35.64 0 0 0-21.762 1.352 130 130 0 0 1-37.652 8.6.2.2 0 0 0 0 .402"/>
  <path fill="#1A4CE5" d="M290.354 192.546c8.912 10.168 25.624 5.956 36.924 3.978 11.13-1.952 20.122 3.02 30.9 4.4 3.764.488 8.542.904 12.05-.844.63-.316.234-1.116-.322-1.186-2.4-.294-6.068.936-13.91-.686-4.848-1-9.37-2.8-14.112-4.084-11.914-3.2-23.6 3.8-35.384 2.828-14.366-1.176-18.872-10-19.156-10a18.5 18.5 0 0 0 3.01 5.594m5.56 19.598c8.28.426 16.584.83 24.8 1.968 11.446 1.582 22.32 6.81 34.034 6.11s22.836-5.452 34.63-5.548a.63.63 0 0 0 .589-.463.63.63 0 0 0-.273-.697c-6.234-3.246-11.532.036-20.022 1.732-7.254 1.442-14.3 3.442-21.676 2.454-9.1-1.22-17.702-4.742-26.842-5.892a96 96 0 0 0-25.324-.214c-.312.054-.216.536.084.55M46.872 307.568a.02.02 0 0 0 .011-.008.02.02 0 0 0 0-.026.02.02 0 0 0-.011-.008.02.02 0 0 0-.011.008.02.02 0 0 0 0 .026.02.02 0 0 0 .011.008m140.832-7.526c-1.8-.028-4.828-.05-8.83-.066-.964-2.41.42 1.174-3.48-8.658 3.504 0 6.19 0 7.834.02a.62.62 0 0 0 .438-.182.617.617 0 0 0 0-.876.62.62 0 0 0-.438-.182 948 948 0 0 0-8.35-.062c-.912-2.2-1.212-2.538-1.94-2.926a.43.43 0 0 0-.382-.025.45.45 0 0 0-.26.281c-.234.67-.264 1.078.286 2.662-7.012-.024-16.5-.038-27.1-.04a19 19 0 0 0-1.626-3.578.415.415 0 0 0-.672-.041.4.4 0 0 0-.092.241c.027 1.133.161 2.262.4 3.37-9.022 0-18.77 0-28.434.022q-.072-1.274-.15-2.552a.466.466 0 0 0-.787-.311.47.47 0 0 0-.147.311q-.13 1.279-.252 2.554c-10.07.014-20 .036-28.89.064a5.1 5.1 0 0 0-.304-2.282c-.086-.214-.368-.356-.544-.15a5.1 5.1 0 0 0-1.064 2.438c-10.116.034-18.73.076-24.41.124.584-.905 1.07-1.87 1.448-2.878.3-.854-.982-1.634-1.572-.908-.984 1.216-1.91 2.504-2.812 3.816-2.12.024-3.53.05-4.078.076a.407.407 0 0 0 0 .812c.93.07 2.052.132 3.346.19-4.75 7.058-4.36 6.3-6.056 8.858-2.902.026-4.816.054-5.496.084a.407.407 0 0 0 0 .812c1.118.08 2.736.148 4.78.2a39 39 0 0 0-2.69 4.904.345.345 0 0 0 .126.474.346.346 0 0 0 .474-.126c1.2-1.744 2.534-3.49 3.91-5.2 6.8.154 17.234.216 29.416.226a18.5 18.5 0 0 0-1.042 4.74c-.038.582.716.662 1 .272a18.2 18.2 0 0 0 2.384-5c9.722 0 20.44-.024 31.25-.064a11.2 11.2 0 0 0 .562 5.02.7.7 0 0 0 .6.345.7.7 0 0 0 .6-.345 11.14 11.14 0 0 0 .766-5.03c10.644-.042 21.304-.094 31.114-.138a20.6 20.6 0 0 0 1.836 4.484.63.63 0 0 0 1.16-.316 19.7 19.7 0 0 0-.656-4.178c10.932-.05 20.684-.09 28-.092a22 22 0 0 0 2.706 5.2c.284.378 1.096.33 1.032-.278a20.8 20.8 0 0 0-1.25-4.924c3.572 0 6.416.018 8.344.048a.62.62 0 0 0 .57-.386.6.6 0 0 0-.003-.475.6.6 0 0 0-.337-.333.6.6 0 0 0-.238-.046m-136.878.112c2.528-3.106 5.072-6.086 6.89-8.734 6.1.2 14.774.288 24.762.322a78 78 0 0 1-2.638 8.278c-12.09.036-22.402.082-29.014.134m31.296-.14c1.884-6.344 2.08-6.4 2.472-8.266 8.986.022 18.932 0 28.968-.046-.452 5.026-.306 5.254-.556 8.246a22146 22146 0 0 0-30.884.066m33.236-.07c-.116-2.67.024-3.4-.212-8.25 9.8-.046 19.628-.114 28.702-.178.5 1.95-.086-.514 2.284 8.4-9.704.008-20.252.014-30.774.028m33.124-.018c-.058-.2-2.432-8.16-2.512-8.426 10.65-.076 20.132-.146 27.092-.174 1.562 4.094 1.066 2.526 3.328 8.64-7.244-.026-16.978-.038-27.908-.04m87.8 1.674c-1.078-.386-2.036-.54-6.7-.476a114 114 0 0 0-6.028-10.372 20.9 20.9 0 0 0 5.938-.528.63.63 0 0 0 .443-.6.63.63 0 0 0-.443-.6 21.9 21.9 0 0 0-7.308-.364 164 164 0 0 0-2-2.924.54.54 0 0 0-.983.141.54.54 0 0 0 .047.405l1.364 2.432c-3.334.122-8.73.352-12.266.512a19.7 19.7 0 0 0-2.96-3.682.36.36 0 0 0-.568.12.36.36 0 0 0-.02.222 20.3 20.3 0 0 0 1.298 3.444 36.4 36.4 0 0 0-7.108.614.408.408 0 0 0-.212.638.4.4 0 0 0 .212.148c2.645.545 5.356.692 8.044.436 1.068 1.966 2.28 3.882 3.282 5.734.81 1.492 1.572 3.092 2.386 4.666a33 33 0 0 0-7.666.576.4.4 0 0 0-.234.648c.06.072.142.121.234.138 2.856.535 5.768.698 8.666.486a23 23 0 0 0 2.85 4.086c.298.332.774-.028.698-.4a19 19 0 0 0-1.168-3.688c4.252-.018 9.878-.068 12.6-.108a24.6 24.6 0 0 0 2.142 3.228c.304.4 1.032.2.866-.362a24 24 0 0 0-1.076-2.886 18.5 18.5 0 0 0 5.69-.482.63.63 0 0 0 .319-.232.635.635 0 0 0-.013-.749.63.63 0 0 0-.326-.221m-21.102-.102c-.976-1.942-2.116-3.822-3.11-5.624-.828-1.496-1.664-3.146-2.584-4.756 3-.066 6.966-.176 12.282-.322 2.896 5.2 4.584 8.318 5.706 10.366-2.648.038-5.238.126-12.294.328z"/>
</svg>
