<svg xmlns="http://www.w3.org/2000/svg" fill="none" viewBox="0 0 55 28">
  <path fill="#FF3A51" d="M35.482 8.75a9.95 9.95 0 0 0-4.226-.936c-5.515 0-9.985 4.47-9.985 9.985 0 2.19.705 4.214 1.9 5.86h-7.76V28h29.52v-.024a8.682 8.682 0 0 0 3.139-16.979A6.84 6.84 0 0 0 35.481 8.75z"/>
  <path fill="#fff" d="M28.693 27.946c7.153-.625 12.764-6.63 12.764-13.946 0-7.732-6.268-14-14-14-6.597 0-12.129 4.563-13.61 10.706H11.4V28h17.294v-.054z"/>
  <path fill="#1A4CE5" d="M16.28 28v-.009c5.672-.227 10.2-4.898 10.2-10.627 0-5.874-4.761-10.635-10.635-10.635-4.858 0-8.954 3.256-10.227 7.705a6.84 6.84 0 0 0 .025 13.462V28z"/>
</svg>
