<svg fill="none" xmlns="http://www.w3.org/2000/svg" viewBox="0 0 28 16">
  <path d="M21.392 7.998a7.225 7.225 0 01-6.587 7.196v.028h8.379c.074.006.148.004.223.002l.113-.002a4.48 4.48 0 001.284-8.773 3.53 3.53 0 00-4.747-2.636 7.191 7.191 0 011.335 4.185z" fill="#FF3A51"/>
  <path d="M21.392 7.998c0 3.775-2.895 6.901-6.587 7.224H8.4v-.004a5.488 5.488 0 00-.408-10.969 7.224 7.224 0 0113.4 3.749z" fill="#fff"/>
  <path d="M8.4 15.222v-.004a5.488 5.488 0 10-5.501-6.996A3.53 3.53 0 000 11.694c0 1.738 1.257 3.237 2.912 3.528H8.4z" fill="#1A4CE5"/>
</svg>
